<?xml version="1.0" encoding="utf-8"?>
<!-- Generator: Adobe Illustrator 22.0.1, SVG Export Plug-In . SVG Version: 6.00 Build 0)  -->
<svg version="1.1" id="Capa_1" xmlns="http://www.w3.org/2000/svg" xmlns:xlink="http://www.w3.org/1999/xlink" x="0px" y="0px"
	 viewBox="0 0 1110 300" style="enable-background:new 0 0 1110 300;" xml:space="preserve">
<style type="text/css">
	.st0{opacity:0.8;fill:url(#SVGID_1_);}
</style>
<linearGradient id="SVGID_1_" gradientUnits="userSpaceOnUse" x1="255.6746" y1="-34.308" x2="939.4598" y2="380.8473">
	<stop  offset="0" style="stop-color:#FF9300"/>
	<stop  offset="1" style="stop-color:#340064"/>
</linearGradient>
<path class="st0" d="M1110,142.9c0-49.1-39.8-88.9-88.9-88.9c-7.6,0-15,1-22.1,2.8c-30.5,5-85.9,8.3-147.4,8.3
	c-80.5,0-171.5-5.7-230.2-20.8l-9.4-2.4C555.6,27.2,470.2,5.1,369.4,1.3c-9.7-0.4-19.3-0.6-28.9-0.6C230.7,0.7,131.3,25,44.7,73.1v0
	c-0.1,0-0.1,0.1-0.2,0.1c-0.2,0.2-0.3,0.4-0.3,0.6v0.2C17.8,89.7,0,118.5,0,151.5c0,49.6,40.2,89.8,89.8,89.8c6,0,11.8-0.6,17.5-1.7
	c31.1-4.7,84.7-7.7,143.9-7.7c80.5,0,171.5,5.7,230.2,20.8l9.4,2.4c56.5,14.6,141.9,36.7,242.7,40.5c9.7,0.4,19.3,0.6,28.9,0.6
	c109.8,0,209.2-24.3,295.8-72.4v0c0.1,0,0.1-0.1,0.2-0.1c0,0,0,0,0-0.1C1088.8,209.5,1110,178.6,1110,142.9z"/>
</svg>
