<?xml version="1.0" encoding="utf-8"?>
<!-- Generator: Adobe Illustrator 22.0.1, SVG Export Plug-In . SVG Version: 6.00 Build 0)  -->
<svg version="1.1" id="Capa_1" xmlns="http://www.w3.org/2000/svg" xmlns:xlink="http://www.w3.org/1999/xlink" x="0px" y="0px"
	 viewBox="0 0 1596.5 500.8" style="enable-background:new 0 0 1596.5 500.8;" xml:space="preserve">
<style type="text/css">
	.st0{opacity:0.7;fill:url(#SVGID_1_);}
	.st1{opacity:0.8;fill:url(#SVGID_2_);}
</style>
<linearGradient id="SVGID_1_" gradientUnits="userSpaceOnUse" x1="181.9825" y1="-162.0399" x2="1403.0182" y2="562.4903">
	<stop  offset="0" style="stop-color:#FF9300"/>
	<stop  offset="1" style="stop-color:#340064"/>
</linearGradient>
<path class="st0" d="M0,0v406.7c0,0.4,0.2,0.8,0.5,1.1c0.3,0.2,0.6,0.3,0.9,0.3c0.1,0,0.2,0,0.3,0c49.8-8.7,144.6-14.5,249.9-14.5
	c134.2,0,285.7,9.5,383.6,34.6l15.6,4c94.2,24.3,236.5,61.2,404.4,67.5c16.2,0.6,32.2,0.9,48.1,0.9c182.9,0,348.6-40.5,492.8-120.6
	v0c0.1-0.1,0.2-0.1,0.3-0.2c0.3-0.3,0.4-0.6,0.4-1V0H0z"/>
<linearGradient id="SVGID_2_" gradientUnits="userSpaceOnUse" x1="318.5309" y1="-101.526" x2="1429.3344" y2="572.8903">
	<stop  offset="0" style="stop-color:#FF9300"/>
	<stop  offset="1" style="stop-color:#340064"/>
</linearGradient>
<path class="st1" d="M0,0v378.9c0,0.4,0.1,0.8,0.4,1c0.1,0.1,0.2,0.1,0.3,0.2v0C145,460.2,310.6,500.7,493.6,500.7
	c15.9,0,31.9-0.3,48.1-0.9c167.9-6.4,310.3-43.2,404.4-67.5l15.6-4c97.9-25.2,249.3-34.6,383.6-34.6c105.3,0,200.1,5.8,249.9,14.5
	c0.1,0,0.2,0,0.3,0c0.3,0,0.6-0.1,0.9-0.3c0.3-0.3,0.5-0.7,0.5-1.1V0H0z"/>
</svg>
