<?xml version="1.0" encoding="utf-8"?>
<!-- Generator: Adobe Illustrator 22.0.1, SVG Export Plug-In . SVG Version: 6.00 Build 0)  -->
<svg version="1.1" id="Capa_1" xmlns="http://www.w3.org/2000/svg" xmlns:xlink="http://www.w3.org/1999/xlink" x="0px" y="0px"
	 viewBox="0 0 1596.5 914.8" style="enable-background:new 0 0 1596.5 914.8;" xml:space="preserve">
<style type="text/css">
	.st0{opacity:0.8;fill:url(#SVGID_1_);}
	.st1{opacity:0.7;fill:url(#SVGID_2_);}
</style>
<g>
	<linearGradient id="SVGID_1_" gradientUnits="userSpaceOnUse" x1="252.0494" y1="66.8956" x2="1515.0105" y2="833.6934">
		<stop  offset="0" style="stop-color:#FF9300"/>
		<stop  offset="1" style="stop-color:#340064"/>
	</linearGradient>
	<path class="st0" d="M1.4,0l1594.1,0c0.8,0,1.4,0.6,1.4,1.4v822.3c0,0.4-0.2,0.8-0.5,1.1c-0.3,0.2-0.6,0.3-0.9,0.3
		c-0.1,0-0.2,0-0.3,0c-49.8-8.7-144.6-14.5-249.9-14.5c-134.2,0-285.7,9.5-383.6,34.6l-15.6,4c-94.2,24.3-236.5,61.2-404.4,67.5
		c-16.2,0.6-32.2,0.9-48.1,0.9c-182.9,0-348.6-40.5-492.8-120.6v0c-0.1-0.1-0.2-0.1-0.3-0.2c-0.3-0.3-0.4-0.6-0.4-1L0,1.4
		C0,0.6,0.6,0,1.4,0z"/>
	<linearGradient id="SVGID_2_" gradientUnits="userSpaceOnUse" x1="99.3859" y1="-2.2698" x2="1485.8643" y2="820.4296">
		<stop  offset="0" style="stop-color:#FF9300"/>
		<stop  offset="1" style="stop-color:#340064"/>
	</linearGradient>
	<path class="st1" d="M1595.5,0H1.4C0.6,0,0,0.6,0,1.4v822.3c0,0.4,0.2,0.8,0.5,1.1c0.3,0.2,0.6,0.3,0.9,0.3c0.1,0,0.2,0,0.3,0
		c49.8-8.7,144.6-14.5,249.9-14.5c134.2,0,285.7,9.5,383.6,34.6l15.6,4c94.2,24.3,236.5,61.2,404.4,67.5c16.2,0.6,32.2,0.9,48.1,0.9
		c182.9,0,348.6-40.5,492.8-120.6v0c0.1-0.1,0.2-0.1,0.3-0.2c0.3-0.3,0.4-0.6,0.4-1V1.4C1596.9,0.6,1596.2,0,1595.5,0z"/>
</g>
</svg>
